# Blender v2.78 (sub 0) OBJ File: ''
# www.blender.org
mtllib station.mtl
o Cylinder
v 0.000774 0.042823 -1.001055
v 0.000774 2.042823 -1.001055
v 0.195864 0.042823 -0.981840
v 0.195864 2.042823 -0.981840
v 0.383457 0.042823 -0.924935
v 0.383457 2.042823 -0.924935
v 0.556344 0.042823 -0.832525
v 0.556344 2.042823 -0.832525
v 0.707880 0.042823 -0.708162
v 0.707880 2.042823 -0.708162
v 0.832243 0.042823 -0.556625
v 0.832243 2.042823 -0.556625
v 0.924653 0.042823 -0.383739
v 0.924653 2.042823 -0.383739
v 0.981559 0.042823 -0.196146
v 0.981559 2.042823 -0.196146
v 1.000774 0.042823 -0.001055
v 1.000774 2.042823 -0.001055
v 0.981559 0.042823 0.194035
v 0.981559 2.042823 0.194035
v 0.924653 0.042823 0.381628
v 0.924653 2.042823 0.381628
v 0.832243 0.042823 0.554515
v 0.832243 2.042823 0.554515
v 0.707880 0.042823 0.706052
v 0.707880 2.042823 0.706052
v 0.556344 0.042823 0.830414
v 0.556344 2.042823 0.830414
v 0.383457 0.042823 0.922824
v 0.383457 2.042823 0.922824
v 0.195864 0.042823 0.979730
v 0.195864 2.042823 0.979730
v 0.000773 0.042823 0.998945
v 0.000773 2.042823 0.998945
v -0.194317 0.042823 0.979730
v -0.194317 2.042823 0.979730
v -0.381910 0.042823 0.922824
v -0.381910 2.042823 0.922824
v -0.554797 0.042823 0.830414
v -0.554797 2.042823 0.830414
v -0.706334 0.042823 0.706051
v -0.706334 2.042823 0.706051
v -0.830696 0.042823 0.554514
v -0.830696 2.042823 0.554514
v -0.923106 0.042823 0.381628
v -0.923106 2.042823 0.381628
v -0.980012 0.042823 0.194034
v -0.980012 2.042823 0.194034
v -0.999226 0.042823 -0.001056
v -0.999226 2.042823 -0.001056
v -0.980012 0.042823 -0.196147
v -0.980012 2.042823 -0.196147
v -0.923106 0.042823 -0.383740
v -0.923106 2.042823 -0.383740
v -0.830695 0.042823 -0.556626
v -0.830695 2.042823 -0.556626
v -0.706332 0.042823 -0.708163
v -0.706332 2.042823 -0.708163
v -0.554796 0.042823 -0.832526
v -0.554796 2.042823 -0.832526
v -0.381909 0.042823 -0.924935
v -0.381909 2.042823 -0.924935
v -0.194315 0.042823 -0.981841
v -0.194315 2.042823 -0.981841
vt 0.8296 0.8532
vt 0.4152 0.8532
vt 0.4152 0.8937
vt 0.8296 0.8937
vt 0.4152 0.9325
vt 0.8296 0.9325
vt 0.4152 0.9684
vt 0.8296 0.9684
vt 0.4152 0.9998
vt 0.8296 0.9998
vt 0.4147 0.9998
vt 0.0002 0.9998
vt 0.0002 0.9684
vt 0.4147 0.9684
vt 0.0002 0.9325
vt 0.4147 0.9325
vt 0.0002 0.8937
vt 0.4147 0.8937
vt 0.0002 0.8532
vt 0.4147 0.8532
vt 0.0002 0.8128
vt 0.4147 0.8128
vt 0.0002 0.7739
vt 0.4147 0.7739
vt 0.0002 0.7381
vt 0.4147 0.7381
vt 0.0002 0.7067
vt 0.4147 0.7067
vt 0.8296 0.7062
vt 0.4152 0.7062
vt 0.4152 0.6748
vt 0.8296 0.6748
vt 0.4152 0.6390
vt 0.8296 0.6390
vt 0.4152 0.6001
vt 0.8296 0.6001
vt 0.4152 0.5597
vt 0.8296 0.5597
vt 0.4152 0.5193
vt 0.8296 0.5193
vt 0.4152 0.4804
vt 0.8296 0.4804
vt 0.4152 0.4446
vt 0.8296 0.4446
vt 0.4152 0.4132
vt 0.8296 0.4132
vt 0.4147 0.4132
vt 0.0002 0.4132
vt 0.0002 0.4446
vt 0.4147 0.4446
vt 0.0002 0.4804
vt 0.4147 0.4804
vt 0.0002 0.5193
vt 0.4147 0.5193
vt 0.0002 0.5597
vt 0.4147 0.5597
vt 0.0002 0.6001
vt 0.4147 0.6001
vt 0.0002 0.6390
vt 0.4147 0.6390
vt 0.0002 0.6748
vt 0.4147 0.6748
vt 0.0002 0.7062
vt 0.4147 0.7062
vt 0.8296 0.7067
vt 0.4152 0.7067
vt 0.4152 0.7381
vt 0.8296 0.7381
vt 0.4152 0.7739
vt 0.8296 0.7739
vt 0.3379 0.0463
vt 0.3667 0.0750
vt 0.3892 0.1088
vt 0.4048 0.1463
vt 0.4127 0.1862
vt 0.4127 0.2268
vt 0.4048 0.2666
vt 0.3892 0.3042
vt 0.3667 0.3379
vt 0.3379 0.3667
vt 0.3042 0.3892
vt 0.2666 0.4048
vt 0.2268 0.4127
vt 0.1862 0.4127
vt 0.1463 0.4048
vt 0.1088 0.3892
vt 0.0750 0.3667
vt 0.0463 0.3379
vt 0.0237 0.3042
vt 0.0081 0.2666
vt 0.0002 0.2268
vt 0.0002 0.1862
vt 0.0081 0.1463
vt 0.0237 0.1088
vt 0.0463 0.0750
vt 0.0750 0.0463
vt 0.1088 0.0237
vt 0.1463 0.0081
vt 0.1862 0.0002
vt 0.2268 0.0002
vt 0.2666 0.0081
vt 0.3042 0.0237
vt 0.4152 0.8128
vt 0.8296 0.8128
vt 0.5592 0.4048
vt 0.5991 0.4127
vt 0.6397 0.4127
vt 0.6796 0.4048
vt 0.7171 0.3892
vt 0.7509 0.3667
vt 0.7796 0.3379
vt 0.8022 0.3042
vt 0.8177 0.2666
vt 0.8257 0.2268
vt 0.8257 0.1862
vt 0.8177 0.1463
vt 0.8022 0.1088
vt 0.7796 0.0750
vt 0.7509 0.0463
vt 0.7171 0.0237
vt 0.6796 0.0081
vt 0.6397 0.0002
vt 0.5991 0.0002
vt 0.5592 0.0081
vt 0.5217 0.0237
vt 0.4879 0.0463
vt 0.4592 0.0750
vt 0.4366 0.1088
vt 0.4211 0.1463
vt 0.4132 0.1862
vt 0.4132 0.2268
vt 0.4211 0.2666
vt 0.4366 0.3042
vt 0.4592 0.3379
vt 0.4879 0.3667
vt 0.5217 0.3892
vn 0.0980 0.0000 -0.9952
vn 0.2903 0.0000 -0.9569
vn 0.4714 0.0000 -0.8819
vn 0.6344 0.0000 -0.7730
vn 0.7730 0.0000 -0.6344
vn 0.8819 0.0000 -0.4714
vn 0.9569 0.0000 -0.2903
vn 0.9952 0.0000 -0.0980
vn 0.9952 0.0000 0.0980
vn 0.9569 0.0000 0.2903
vn 0.8819 0.0000 0.4714
vn 0.7730 0.0000 0.6344
vn 0.6344 0.0000 0.7730
vn 0.4714 0.0000 0.8819
vn 0.2903 0.0000 0.9569
vn 0.0980 0.0000 0.9952
vn -0.0980 0.0000 0.9952
vn -0.2903 0.0000 0.9569
vn -0.4714 0.0000 0.8819
vn -0.6344 0.0000 0.7730
vn -0.7730 0.0000 0.6344
vn -0.8819 0.0000 0.4714
vn -0.9569 0.0000 0.2903
vn -0.9952 0.0000 0.0980
vn -0.9952 0.0000 -0.0980
vn -0.9569 0.0000 -0.2903
vn -0.8819 0.0000 -0.4714
vn -0.7730 0.0000 -0.6344
vn -0.6344 0.0000 -0.7730
vn -0.4714 0.0000 -0.8819
vn 0.0000 1.0000 0.0000
vn -0.2903 0.0000 -0.9569
vn -0.0980 0.0000 -0.9952
vn 0.0000 -1.0000 -0.0000
usemtl Material.001
s off
f 1/1/1 2/2/1 4/3/1 3/4/1
f 3/4/2 4/3/2 6/5/2 5/6/2
f 5/6/3 6/5/3 8/7/3 7/8/3
f 7/8/4 8/7/4 10/9/4 9/10/4
f 9/11/5 10/12/5 12/13/5 11/14/5
f 11/14/6 12/13/6 14/15/6 13/16/6
f 13/16/7 14/15/7 16/17/7 15/18/7
f 15/18/8 16/17/8 18/19/8 17/20/8
f 17/20/9 18/19/9 20/21/9 19/22/9
f 19/22/10 20/21/10 22/23/10 21/24/10
f 21/24/11 22/23/11 24/25/11 23/26/11
f 23/26/12 24/25/12 26/27/12 25/28/12
f 25/29/13 26/30/13 28/31/13 27/32/13
f 27/32/14 28/31/14 30/33/14 29/34/14
f 29/34/15 30/33/15 32/35/15 31/36/15
f 31/36/16 32/35/16 34/37/16 33/38/16
f 33/38/17 34/37/17 36/39/17 35/40/17
f 35/40/18 36/39/18 38/41/18 37/42/18
f 37/42/19 38/41/19 40/43/19 39/44/19
f 39/44/20 40/43/20 42/45/20 41/46/20
f 41/47/21 42/48/21 44/49/21 43/50/21
f 43/50/22 44/49/22 46/51/22 45/52/22
f 45/52/23 46/51/23 48/53/23 47/54/23
f 47/54/24 48/53/24 50/55/24 49/56/24
f 49/56/25 50/55/25 52/57/25 51/58/25
f 51/58/26 52/57/26 54/59/26 53/60/26
f 53/60/27 54/59/27 56/61/27 55/62/27
f 55/62/28 56/61/28 58/63/28 57/64/28
f 57/65/29 58/66/29 60/67/29 59/68/29
f 59/68/30 60/67/30 62/69/30 61/70/30
f 4/71/31 2/72/31 64/73/31 62/74/31 60/75/31 58/76/31 56/77/31 54/78/31 52/79/31 50/80/31 48/81/31 46/82/31 44/83/31 42/84/31 40/85/31 38/86/31 36/87/31 34/88/31 32/89/31 30/90/31 28/91/31 26/92/31 24/93/31 22/94/31 20/95/31 18/96/31 16/97/31 14/98/31 12/99/31 10/100/31 8/101/31 6/102/31
f 61/70/32 62/69/32 64/103/32 63/104/32
f 63/104/33 64/103/33 2/2/33 1/1/33
f 1/105/34 3/106/34 5/107/34 7/108/34 9/109/34 11/110/34 13/111/34 15/112/34 17/113/34 19/114/34 21/115/34 23/116/34 25/117/34 27/118/34 29/119/34 31/120/34 33/121/34 35/122/34 37/123/34 39/124/34 41/125/34 43/126/34 45/127/34 47/128/34 49/129/34 51/130/34 53/131/34 55/132/34 57/133/34 59/134/34 61/135/34 63/136/34
o Circle.002
v -0.043483 3.062238 -4.675992
v -0.238573 3.062238 -4.656778
v -0.426166 3.062238 -4.599872
v -0.599053 3.062238 -4.507462
v -0.750590 3.062238 -4.383099
v -0.874952 3.062238 -4.231563
v -0.967362 3.062238 -4.058676
v -1.024268 3.062238 -3.871083
v -1.043483 3.062238 -3.675992
v -1.024268 3.062238 -3.480902
v -0.967362 3.062238 -3.293309
v -0.874952 3.062238 -3.120422
v -0.750590 3.062238 -2.968886
v -0.599053 3.062238 -2.844523
v -0.426166 3.062238 -2.752113
v -0.238573 3.062238 -2.695207
v -0.043482 3.062238 -2.675992
v 0.151608 3.062238 -2.695207
v 0.339201 3.062238 -2.752113
v 0.512088 3.062238 -2.844523
v 0.663624 3.062238 -2.968886
v 0.787987 3.062238 -3.120423
v 0.880397 3.062238 -3.293310
v 0.937303 3.062238 -3.480903
v 0.956517 3.062238 -3.675993
v 0.937302 3.062238 -3.871084
v 0.880396 3.062238 -4.058677
v 0.787986 3.062238 -4.231564
v 0.663623 3.062238 -4.383100
v 0.512086 3.062238 -4.507463
v 0.339199 3.062238 -4.599873
v 0.151606 3.062238 -4.656778
l 66 65
l 67 66
l 68 67
l 69 68
l 70 69
l 71 70
l 72 71
l 73 72
l 74 73
l 75 74
l 76 75
l 77 76
l 78 77
l 79 78
l 80 79
l 81 80
l 82 81
l 83 82
l 84 83
l 85 84
l 86 85
l 87 86
l 88 87
l 89 88
l 90 89
l 91 90
l 92 91
l 93 92
l 94 93
l 95 94
l 96 95
l 65 96
o Circle.001
v -0.043483 3.062238 -4.675992
v -0.238573 3.062238 -4.656778
v -0.426166 3.062238 -4.599872
v -0.599053 3.062238 -4.507462
v -0.750590 3.062238 -4.383099
v -0.874952 3.062238 -4.231563
v -0.967362 3.062238 -4.058676
v -1.024268 3.062238 -3.871083
v -1.043483 3.062238 -3.675992
v -1.024268 3.062238 -3.480902
v -0.967362 3.062238 -3.293309
v -0.874952 3.062238 -3.120422
v -0.750590 3.062238 -2.968886
v -0.599053 3.062238 -2.844523
v -0.426166 3.062238 -2.752113
v -0.238573 3.062238 -2.695207
v -0.043482 3.062238 -2.675992
v 0.151608 3.062238 -2.695207
v 0.339201 3.062238 -2.752113
v 0.512088 3.062238 -2.844523
v 0.663624 3.062238 -2.968886
v 0.787987 3.062238 -3.120423
v 0.880397 3.062238 -3.293310
v 0.937303 3.062238 -3.480903
v 0.956517 3.062238 -3.675993
v 0.937302 3.062238 -3.871084
v 0.880396 3.062238 -4.058677
v 0.787986 3.062238 -4.231564
v 0.663623 3.062238 -4.383100
v 0.512086 3.062238 -4.507463
v 0.339199 3.062238 -4.599873
v 0.151606 3.062238 -4.656778
l 98 97
l 99 98
l 100 99
l 101 100
l 102 101
l 103 102
l 104 103
l 105 104
l 106 105
l 107 106
l 108 107
l 109 108
l 110 109
l 111 110
l 112 111
l 113 112
l 114 113
l 115 114
l 116 115
l 117 116
l 118 117
l 119 118
l 120 119
l 121 120
l 122 121
l 123 122
l 124 123
l 125 124
l 126 125
l 127 126
l 128 127
l 97 128
o Circle
v 0.000000 0.000000 -1.000000
v -0.195090 0.000000 -0.980785
v -0.382683 0.000000 -0.923880
v -0.555570 0.000000 -0.831470
v -0.707107 0.000000 -0.707107
v -0.831470 0.000000 -0.555570
v -0.923880 0.000000 -0.382683
v -0.980785 0.000000 -0.195090
v -1.000000 0.000000 -0.000000
v -0.980785 0.000000 0.195090
v -0.923880 0.000000 0.382683
v -0.831470 0.000000 0.555570
v -0.707107 0.000000 0.707107
v -0.555570 0.000000 0.831470
v -0.382683 0.000000 0.923880
v -0.195090 0.000000 0.980785
v 0.000000 0.000000 1.000000
v 0.195091 0.000000 0.980785
v 0.382684 0.000000 0.923879
v 0.555571 0.000000 0.831469
v 0.707107 0.000000 0.707106
v 0.831470 0.000000 0.555570
v 0.923880 0.000000 0.382683
v 0.980785 0.000000 0.195089
v 1.000000 0.000000 -0.000001
v 0.980785 0.000000 -0.195091
v 0.923879 0.000000 -0.382684
v 0.831469 0.000000 -0.555571
v 0.707106 0.000000 -0.707108
v 0.555569 0.000000 -0.831470
v 0.382682 0.000000 -0.923880
v 0.195089 0.000000 -0.980786
l 130 129
l 131 130
l 132 131
l 133 132
l 134 133
l 135 134
l 136 135
l 137 136
l 138 137
l 139 138
l 140 139
l 141 140
l 142 141
l 143 142
l 144 143
l 145 144
l 146 145
l 147 146
l 148 147
l 149 148
l 150 149
l 151 150
l 152 151
l 153 152
l 154 153
l 155 154
l 156 155
l 157 156
l 158 157
l 159 158
l 160 159
l 129 160
