# Blender v2.78 (sub 0) OBJ File: 'track_2.blend'
# www.blender.org
mtllib track_2.mtl
o Cube
v 0.174466 0.062334 -0.336917
v 0.174466 0.062334 0.336917
v -0.174466 0.062334 0.336917
v -0.174466 0.062334 -0.336917
v 0.174466 -0.062334 -0.336917
v 0.174466 -0.062334 0.336917
v -0.174466 -0.062334 0.336917
v -0.174466 -0.062334 -0.336917
v 0.072227 0.062334 -0.336917
v 0.072227 0.062334 0.336917
v -0.072227 0.062334 -0.336917
v -0.072227 0.062334 0.336917
v 0.072227 0.062334 -0.336917
v 0.072227 0.062334 0.336917
v -0.072227 0.062334 -0.336917
v -0.072227 0.062334 0.336917
v 0.072227 0.277128 -0.336917
v 0.072227 0.277128 0.336917
v -0.072227 0.277128 -0.336917
v -0.072227 0.277128 0.336917
v 0.133498 0.277128 -0.336917
v 0.133498 0.277128 0.336917
v -0.133498 0.277128 -0.336917
v -0.133498 0.277128 0.336917
v 0.133498 0.504152 -0.336917
v 0.133498 0.504152 0.336917
v -0.133498 0.504152 -0.336917
v -0.133498 0.504152 0.336917
vt 0.8656 0.9935
vt 0.6498 0.9935
vt 0.6498 0.9303
vt 0.8656 0.9303
vt 0.8656 0.2161
vt 0.6498 0.2161
vt 0.6498 0.0004
vt 0.8656 0.0004
vt 0.8656 0.2169
vt 0.8656 0.4326
vt 0.6498 0.4326
vt 0.6498 0.2169
vt 0.8656 0.6498
vt 0.8656 0.8656
vt 0.6498 0.8656
vt 0.6498 0.6498
vt 0.4333 0.9610
vt 0.4333 0.7453
vt 0.6491 0.7453
vt 0.6491 0.9610
vt 0.8656 0.4333
vt 0.8656 0.6491
vt 0.6498 0.6491
vt 0.6498 0.4333
vt 0.6498 0.9942
vt 0.8651 0.9942
vt 0.8651 0.9980
vt 0.6498 0.9980
vt 0.6498 0.8663
vt 0.8656 0.8663
vt 0.8656 0.9295
vt 0.6498 0.9295
vt 0.4225 0.3963
vt 0.4222 0.3963
vt 0.4225 0.3963
vt 0.4225 0.3963
vt 0.4222 0.3955
vt 0.4226 0.3955
vt 0.4222 0.3955
vt 0.4222 0.3955
vt 0.9556 0.3721
vt 0.8663 0.3721
vt 0.8663 0.0004
vt 0.9556 0.0004
vt 0.3322 0.7664
vt 0.4213 0.7664
vt 0.4213 0.7680
vt 0.3322 0.7680
vt 0.4213 0.7703
vt 0.3322 0.7703
vt 0.3322 0.7687
vt 0.4213 0.7687
vt 0.3816 0.9958
vt 0.1663 0.9958
vt 0.1663 0.9920
vt 0.3816 0.9920
vt 0.4226 0.3947
vt 0.4225 0.3947
vt 0.4222 0.3947
vt 0.4228 0.3947
vt 0.4215 0.7657
vt 0.3322 0.7657
vt 0.3322 0.3940
vt 0.4215 0.3940
vt 0.6491 0.7445
vt 0.4333 0.7445
vt 0.4333 0.3728
vt 0.6491 0.3728
vt 0.6491 0.3721
vt 0.4333 0.3721
vt 0.4333 0.0004
vt 0.6491 0.0004
vt 0.4326 0.3932
vt 0.2169 0.3932
vt 0.2169 0.0004
vt 0.4326 0.0004
vt 0.6491 0.9996
vt 0.4333 0.9996
vt 0.4333 0.9617
vt 0.6491 0.9617
vt 0.1663 0.9534
vt 0.3821 0.9534
vt 0.3821 0.9913
vt 0.1663 0.9913
vt 0.4224 0.3940
vt 0.4226 0.3940
vt 0.4230 0.3940
vt 0.4222 0.3940
vt 0.3821 0.9527
vt 0.1663 0.9527
vt 0.1663 0.7876
vt 0.3821 0.7876
vt 0.1654 0.7869
vt 0.0004 0.7868
vt 0.0005 0.3940
vt 0.1656 0.3940
vt 0.3314 0.7868
vt 0.1663 0.7868
vt 0.1663 0.3940
vt 0.3314 0.3940
vt 0.2161 0.3932
vt 0.0004 0.3932
vt 0.0004 0.0004
vt 0.2161 0.0004
vn 0.0000 -1.0000 0.0000
vn 0.0000 1.0000 0.0000
vn -1.0000 0.0000 -0.0000
vn 0.0000 -0.0000 -1.0000
vn 1.0000 -0.0000 0.0000
vn -0.0000 0.0000 1.0000
usemtl Material
s off
f 1/1/1 2/2/1 10/3/1 9/4/1
f 5/5/2 8/6/2 7/7/2 6/8/2
f 1/9/3 5/10/3 6/11/3 2/12/3
f 2/13/4 6/14/4 7/15/4 3/16/4
f 3/17/5 7/18/5 8/19/5 4/20/5
f 5/21/6 1/22/6 4/23/6 8/24/6
f 12/25/6 11/26/6 15/27/6 16/28/6
f 3/29/1 4/30/1 11/31/1 12/32/1
f 2/33/1 3/34/1 12/35/1 10/36/1
f 4/37/1 1/38/1 9/39/1 11/40/1
f 15/41/6 13/42/6 17/43/6 19/44/6
f 11/45/6 9/46/6 13/47/6 15/48/6
f 10/49/6 12/50/6 16/51/6 14/52/6
f 9/53/6 10/54/6 14/55/6 13/56/6
f 18/57/2 20/58/2 24/59/2 22/60/2
f 14/61/4 16/62/4 20/63/4 18/64/4
f 13/65/3 14/66/3 18/67/3 17/68/3
f 16/69/5 15/70/5 19/71/5 20/72/5
f 24/73/5 23/74/5 27/75/5 28/76/5
f 17/77/2 18/78/2 22/79/2 21/80/2
f 20/81/2 19/82/2 23/83/2 24/84/2
f 19/85/6 17/86/6 21/87/6 23/88/6
f 25/89/1 26/90/1 28/91/1 27/92/1
f 23/93/6 21/94/6 25/95/6 27/96/6
f 22/97/4 24/98/4 28/99/4 26/100/4
f 21/101/3 22/102/3 26/103/3 25/104/3
